<svg width="53" height="54" viewBox="0 0 53 54" fill="none" xmlns="http://www.w3.org/2000/svg">
<path d="M49.2143 21.2143H32.1786V3.85714C32.1786 1.72728 30.4833 0 28.3929 0H24.6071C22.5167 0 20.8214 1.72728 20.8214 3.85714V21.2143H3.78571C1.69529 21.2143 0 22.9416 0 25.0714V28.9286C0 31.0584 1.69529 32.7857 3.78571 32.7857H20.8214V50.1429C20.8214 52.2727 22.5167 54 24.6071 54H28.3929C30.4833 54 32.1786 52.2727 32.1786 50.1429V32.7857H49.2143C51.3047 32.7857 53 31.0584 53 28.9286V25.0714C53 22.9416 51.3047 21.2143 49.2143 21.2143Z" fill="#6C7878"/>
</svg>
